<svg xmlns="http://www.w3.org/2000/svg" viewBox="0 0 800 600" fill="none">
  <defs>
    <linearGradient id="bg" x1="0" y1="0" x2="800" y2="600" gradientUnits="userSpaceOnUse">
      <stop offset="0%" stop-color="#0f172a"/><stop offset="100%" stop-color="#020617"/>
    </linearGradient>
    <linearGradient id="sky" x1="0" y1="0" x2="1" y2="1">
      <stop offset="0%" stop-color="#38bdf8"/><stop offset="100%" stop-color="#0ea5e9"/>
    </linearGradient>
    <linearGradient id="indigo" x1="0" y1="0" x2="1" y2="1">
      <stop offset="0%" stop-color="#a5b4fc"/><stop offset="100%" stop-color="#6366f1"/>
    </linearGradient>
    <linearGradient id="emerald" x1="0" y1="0" x2="1" y2="1">
      <stop offset="0%" stop-color="#6ee7b7"/><stop offset="100%" stop-color="#10b981"/>
    </linearGradient>
    <linearGradient id="amber" x1="0" y1="0" x2="1" y2="1">
      <stop offset="0%" stop-color="#fcd34d"/><stop offset="100%" stop-color="#f59e0b"/>
    </linearGradient>
    <filter id="glow" x="-50%" y="-50%" width="200%" height="200%">
      <feGaussianBlur in="SourceGraphic" stdDeviation="3" result="blur"/>
      <feMerge><feMergeNode in="blur"/><feMergeNode in="SourceGraphic"/></feMerge>
    </filter>

    <style>
      @keyframes cw  { to { transform: rotate(360deg) } }
      @keyframes ccw { to { transform: rotate(-360deg) } }
      @keyframes dash { to { stroke-dashoffset: -30 } }
    </style>
  </defs>

  <!-- Background -->
  <rect width="800" height="600" fill="url(#bg)"/>

  <!-- Blueprint dot-grid -->
  <g fill="#1e3a5f" opacity=".18">
    <circle cx="0" cy="0" r=".6"/>
    <circle cx="0" cy="40" r=".6"/>
    <circle cx="0" cy="80" r=".6"/>
    <circle cx="0" cy="120" r=".6"/>
    <circle cx="0" cy="160" r=".6"/>
    <circle cx="0" cy="200" r=".6"/>
    <circle cx="0" cy="240" r=".6"/>
    <circle cx="0" cy="280" r=".6"/>
    <circle cx="0" cy="320" r=".6"/>
    <circle cx="0" cy="360" r=".6"/>
    <circle cx="0" cy="400" r=".6"/>
    <circle cx="0" cy="440" r=".6"/>
    <circle cx="0" cy="480" r=".6"/>
    <circle cx="0" cy="520" r=".6"/>
    <circle cx="0" cy="560" r=".6"/>
    <circle cx="0" cy="600" r=".6"/>
    <circle cx="40" cy="0" r=".6"/>
    <circle cx="40" cy="40" r=".6"/>
    <circle cx="40" cy="80" r=".6"/>
    <circle cx="40" cy="120" r=".6"/>
    <circle cx="40" cy="160" r=".6"/>
    <circle cx="40" cy="200" r=".6"/>
    <circle cx="40" cy="240" r=".6"/>
    <circle cx="40" cy="280" r=".6"/>
    <circle cx="40" cy="320" r=".6"/>
    <circle cx="40" cy="360" r=".6"/>
    <circle cx="40" cy="400" r=".6"/>
    <circle cx="40" cy="440" r=".6"/>
    <circle cx="40" cy="480" r=".6"/>
    <circle cx="40" cy="520" r=".6"/>
    <circle cx="40" cy="560" r=".6"/>
    <circle cx="40" cy="600" r=".6"/>
    <circle cx="80" cy="0" r=".6"/>
    <circle cx="80" cy="40" r=".6"/>
    <circle cx="80" cy="80" r=".6"/>
    <circle cx="80" cy="120" r=".6"/>
    <circle cx="80" cy="160" r=".6"/>
    <circle cx="80" cy="200" r=".6"/>
    <circle cx="80" cy="240" r=".6"/>
    <circle cx="80" cy="280" r=".6"/>
    <circle cx="80" cy="320" r=".6"/>
    <circle cx="80" cy="360" r=".6"/>
    <circle cx="80" cy="400" r=".6"/>
    <circle cx="80" cy="440" r=".6"/>
    <circle cx="80" cy="480" r=".6"/>
    <circle cx="80" cy="520" r=".6"/>
    <circle cx="80" cy="560" r=".6"/>
    <circle cx="80" cy="600" r=".6"/>
    <circle cx="120" cy="0" r=".6"/>
    <circle cx="120" cy="40" r=".6"/>
    <circle cx="120" cy="80" r=".6"/>
    <circle cx="120" cy="120" r=".6"/>
    <circle cx="120" cy="160" r=".6"/>
    <circle cx="120" cy="200" r=".6"/>
    <circle cx="120" cy="240" r=".6"/>
    <circle cx="120" cy="280" r=".6"/>
    <circle cx="120" cy="320" r=".6"/>
    <circle cx="120" cy="360" r=".6"/>
    <circle cx="120" cy="400" r=".6"/>
    <circle cx="120" cy="440" r=".6"/>
    <circle cx="120" cy="480" r=".6"/>
    <circle cx="120" cy="520" r=".6"/>
    <circle cx="120" cy="560" r=".6"/>
    <circle cx="120" cy="600" r=".6"/>
    <circle cx="160" cy="0" r=".6"/>
    <circle cx="160" cy="40" r=".6"/>
    <circle cx="160" cy="80" r=".6"/>
    <circle cx="160" cy="120" r=".6"/>
    <circle cx="160" cy="160" r=".6"/>
    <circle cx="160" cy="200" r=".6"/>
    <circle cx="160" cy="240" r=".6"/>
    <circle cx="160" cy="280" r=".6"/>
    <circle cx="160" cy="320" r=".6"/>
    <circle cx="160" cy="360" r=".6"/>
    <circle cx="160" cy="400" r=".6"/>
    <circle cx="160" cy="440" r=".6"/>
    <circle cx="160" cy="480" r=".6"/>
    <circle cx="160" cy="520" r=".6"/>
    <circle cx="160" cy="560" r=".6"/>
    <circle cx="160" cy="600" r=".6"/>
    <circle cx="200" cy="0" r=".6"/>
    <circle cx="200" cy="40" r=".6"/>
    <circle cx="200" cy="80" r=".6"/>
    <circle cx="200" cy="120" r=".6"/>
    <circle cx="200" cy="160" r=".6"/>
    <circle cx="200" cy="200" r=".6"/>
    <circle cx="200" cy="240" r=".6"/>
    <circle cx="200" cy="280" r=".6"/>
    <circle cx="200" cy="320" r=".6"/>
    <circle cx="200" cy="360" r=".6"/>
    <circle cx="200" cy="400" r=".6"/>
    <circle cx="200" cy="440" r=".6"/>
    <circle cx="200" cy="480" r=".6"/>
    <circle cx="200" cy="520" r=".6"/>
    <circle cx="200" cy="560" r=".6"/>
    <circle cx="200" cy="600" r=".6"/>
    <circle cx="240" cy="0" r=".6"/>
    <circle cx="240" cy="40" r=".6"/>
    <circle cx="240" cy="80" r=".6"/>
    <circle cx="240" cy="120" r=".6"/>
    <circle cx="240" cy="160" r=".6"/>
    <circle cx="240" cy="200" r=".6"/>
    <circle cx="240" cy="240" r=".6"/>
    <circle cx="240" cy="280" r=".6"/>
    <circle cx="240" cy="320" r=".6"/>
    <circle cx="240" cy="360" r=".6"/>
    <circle cx="240" cy="400" r=".6"/>
    <circle cx="240" cy="440" r=".6"/>
    <circle cx="240" cy="480" r=".6"/>
    <circle cx="240" cy="520" r=".6"/>
    <circle cx="240" cy="560" r=".6"/>
    <circle cx="240" cy="600" r=".6"/>
    <circle cx="280" cy="0" r=".6"/>
    <circle cx="280" cy="40" r=".6"/>
    <circle cx="280" cy="80" r=".6"/>
    <circle cx="280" cy="120" r=".6"/>
    <circle cx="280" cy="160" r=".6"/>
    <circle cx="280" cy="200" r=".6"/>
    <circle cx="280" cy="240" r=".6"/>
    <circle cx="280" cy="280" r=".6"/>
    <circle cx="280" cy="320" r=".6"/>
    <circle cx="280" cy="360" r=".6"/>
    <circle cx="280" cy="400" r=".6"/>
    <circle cx="280" cy="440" r=".6"/>
    <circle cx="280" cy="480" r=".6"/>
    <circle cx="280" cy="520" r=".6"/>
    <circle cx="280" cy="560" r=".6"/>
    <circle cx="280" cy="600" r=".6"/>
    <circle cx="320" cy="0" r=".6"/>
    <circle cx="320" cy="40" r=".6"/>
    <circle cx="320" cy="80" r=".6"/>
    <circle cx="320" cy="120" r=".6"/>
    <circle cx="320" cy="160" r=".6"/>
    <circle cx="320" cy="200" r=".6"/>
    <circle cx="320" cy="240" r=".6"/>
    <circle cx="320" cy="280" r=".6"/>
    <circle cx="320" cy="320" r=".6"/>
    <circle cx="320" cy="360" r=".6"/>
    <circle cx="320" cy="400" r=".6"/>
    <circle cx="320" cy="440" r=".6"/>
    <circle cx="320" cy="480" r=".6"/>
    <circle cx="320" cy="520" r=".6"/>
    <circle cx="320" cy="560" r=".6"/>
    <circle cx="320" cy="600" r=".6"/>
    <circle cx="360" cy="0" r=".6"/>
    <circle cx="360" cy="40" r=".6"/>
    <circle cx="360" cy="80" r=".6"/>
    <circle cx="360" cy="120" r=".6"/>
    <circle cx="360" cy="160" r=".6"/>
    <circle cx="360" cy="200" r=".6"/>
    <circle cx="360" cy="240" r=".6"/>
    <circle cx="360" cy="280" r=".6"/>
    <circle cx="360" cy="320" r=".6"/>
    <circle cx="360" cy="360" r=".6"/>
    <circle cx="360" cy="400" r=".6"/>
    <circle cx="360" cy="440" r=".6"/>
    <circle cx="360" cy="480" r=".6"/>
    <circle cx="360" cy="520" r=".6"/>
    <circle cx="360" cy="560" r=".6"/>
    <circle cx="360" cy="600" r=".6"/>
    <circle cx="400" cy="0" r=".6"/>
    <circle cx="400" cy="40" r=".6"/>
    <circle cx="400" cy="80" r=".6"/>
    <circle cx="400" cy="120" r=".6"/>
    <circle cx="400" cy="160" r=".6"/>
    <circle cx="400" cy="200" r=".6"/>
    <circle cx="400" cy="240" r=".6"/>
    <circle cx="400" cy="280" r=".6"/>
    <circle cx="400" cy="320" r=".6"/>
    <circle cx="400" cy="360" r=".6"/>
    <circle cx="400" cy="400" r=".6"/>
    <circle cx="400" cy="440" r=".6"/>
    <circle cx="400" cy="480" r=".6"/>
    <circle cx="400" cy="520" r=".6"/>
    <circle cx="400" cy="560" r=".6"/>
    <circle cx="400" cy="600" r=".6"/>
    <circle cx="440" cy="0" r=".6"/>
    <circle cx="440" cy="40" r=".6"/>
    <circle cx="440" cy="80" r=".6"/>
    <circle cx="440" cy="120" r=".6"/>
    <circle cx="440" cy="160" r=".6"/>
    <circle cx="440" cy="200" r=".6"/>
    <circle cx="440" cy="240" r=".6"/>
    <circle cx="440" cy="280" r=".6"/>
    <circle cx="440" cy="320" r=".6"/>
    <circle cx="440" cy="360" r=".6"/>
    <circle cx="440" cy="400" r=".6"/>
    <circle cx="440" cy="440" r=".6"/>
    <circle cx="440" cy="480" r=".6"/>
    <circle cx="440" cy="520" r=".6"/>
    <circle cx="440" cy="560" r=".6"/>
    <circle cx="440" cy="600" r=".6"/>
    <circle cx="480" cy="0" r=".6"/>
    <circle cx="480" cy="40" r=".6"/>
    <circle cx="480" cy="80" r=".6"/>
    <circle cx="480" cy="120" r=".6"/>
    <circle cx="480" cy="160" r=".6"/>
    <circle cx="480" cy="200" r=".6"/>
    <circle cx="480" cy="240" r=".6"/>
    <circle cx="480" cy="280" r=".6"/>
    <circle cx="480" cy="320" r=".6"/>
    <circle cx="480" cy="360" r=".6"/>
    <circle cx="480" cy="400" r=".6"/>
    <circle cx="480" cy="440" r=".6"/>
    <circle cx="480" cy="480" r=".6"/>
    <circle cx="480" cy="520" r=".6"/>
    <circle cx="480" cy="560" r=".6"/>
    <circle cx="480" cy="600" r=".6"/>
    <circle cx="520" cy="0" r=".6"/>
    <circle cx="520" cy="40" r=".6"/>
    <circle cx="520" cy="80" r=".6"/>
    <circle cx="520" cy="120" r=".6"/>
    <circle cx="520" cy="160" r=".6"/>
    <circle cx="520" cy="200" r=".6"/>
    <circle cx="520" cy="240" r=".6"/>
    <circle cx="520" cy="280" r=".6"/>
    <circle cx="520" cy="320" r=".6"/>
    <circle cx="520" cy="360" r=".6"/>
    <circle cx="520" cy="400" r=".6"/>
    <circle cx="520" cy="440" r=".6"/>
    <circle cx="520" cy="480" r=".6"/>
    <circle cx="520" cy="520" r=".6"/>
    <circle cx="520" cy="560" r=".6"/>
    <circle cx="520" cy="600" r=".6"/>
    <circle cx="560" cy="0" r=".6"/>
    <circle cx="560" cy="40" r=".6"/>
    <circle cx="560" cy="80" r=".6"/>
    <circle cx="560" cy="120" r=".6"/>
    <circle cx="560" cy="160" r=".6"/>
    <circle cx="560" cy="200" r=".6"/>
    <circle cx="560" cy="240" r=".6"/>
    <circle cx="560" cy="280" r=".6"/>
    <circle cx="560" cy="320" r=".6"/>
    <circle cx="560" cy="360" r=".6"/>
    <circle cx="560" cy="400" r=".6"/>
    <circle cx="560" cy="440" r=".6"/>
    <circle cx="560" cy="480" r=".6"/>
    <circle cx="560" cy="520" r=".6"/>
    <circle cx="560" cy="560" r=".6"/>
    <circle cx="560" cy="600" r=".6"/>
    <circle cx="600" cy="0" r=".6"/>
    <circle cx="600" cy="40" r=".6"/>
    <circle cx="600" cy="80" r=".6"/>
    <circle cx="600" cy="120" r=".6"/>
    <circle cx="600" cy="160" r=".6"/>
    <circle cx="600" cy="200" r=".6"/>
    <circle cx="600" cy="240" r=".6"/>
    <circle cx="600" cy="280" r=".6"/>
    <circle cx="600" cy="320" r=".6"/>
    <circle cx="600" cy="360" r=".6"/>
    <circle cx="600" cy="400" r=".6"/>
    <circle cx="600" cy="440" r=".6"/>
    <circle cx="600" cy="480" r=".6"/>
    <circle cx="600" cy="520" r=".6"/>
    <circle cx="600" cy="560" r=".6"/>
    <circle cx="600" cy="600" r=".6"/>
    <circle cx="640" cy="0" r=".6"/>
    <circle cx="640" cy="40" r=".6"/>
    <circle cx="640" cy="80" r=".6"/>
    <circle cx="640" cy="120" r=".6"/>
    <circle cx="640" cy="160" r=".6"/>
    <circle cx="640" cy="200" r=".6"/>
    <circle cx="640" cy="240" r=".6"/>
    <circle cx="640" cy="280" r=".6"/>
    <circle cx="640" cy="320" r=".6"/>
    <circle cx="640" cy="360" r=".6"/>
    <circle cx="640" cy="400" r=".6"/>
    <circle cx="640" cy="440" r=".6"/>
    <circle cx="640" cy="480" r=".6"/>
    <circle cx="640" cy="520" r=".6"/>
    <circle cx="640" cy="560" r=".6"/>
    <circle cx="640" cy="600" r=".6"/>
    <circle cx="680" cy="0" r=".6"/>
    <circle cx="680" cy="40" r=".6"/>
    <circle cx="680" cy="80" r=".6"/>
    <circle cx="680" cy="120" r=".6"/>
    <circle cx="680" cy="160" r=".6"/>
    <circle cx="680" cy="200" r=".6"/>
    <circle cx="680" cy="240" r=".6"/>
    <circle cx="680" cy="280" r=".6"/>
    <circle cx="680" cy="320" r=".6"/>
    <circle cx="680" cy="360" r=".6"/>
    <circle cx="680" cy="400" r=".6"/>
    <circle cx="680" cy="440" r=".6"/>
    <circle cx="680" cy="480" r=".6"/>
    <circle cx="680" cy="520" r=".6"/>
    <circle cx="680" cy="560" r=".6"/>
    <circle cx="680" cy="600" r=".6"/>
    <circle cx="720" cy="0" r=".6"/>
    <circle cx="720" cy="40" r=".6"/>
    <circle cx="720" cy="80" r=".6"/>
    <circle cx="720" cy="120" r=".6"/>
    <circle cx="720" cy="160" r=".6"/>
    <circle cx="720" cy="200" r=".6"/>
    <circle cx="720" cy="240" r=".6"/>
    <circle cx="720" cy="280" r=".6"/>
    <circle cx="720" cy="320" r=".6"/>
    <circle cx="720" cy="360" r=".6"/>
    <circle cx="720" cy="400" r=".6"/>
    <circle cx="720" cy="440" r=".6"/>
    <circle cx="720" cy="480" r=".6"/>
    <circle cx="720" cy="520" r=".6"/>
    <circle cx="720" cy="560" r=".6"/>
    <circle cx="720" cy="600" r=".6"/>
    <circle cx="760" cy="0" r=".6"/>
    <circle cx="760" cy="40" r=".6"/>
    <circle cx="760" cy="80" r=".6"/>
    <circle cx="760" cy="120" r=".6"/>
    <circle cx="760" cy="160" r=".6"/>
    <circle cx="760" cy="200" r=".6"/>
    <circle cx="760" cy="240" r=".6"/>
    <circle cx="760" cy="280" r=".6"/>
    <circle cx="760" cy="320" r=".6"/>
    <circle cx="760" cy="360" r=".6"/>
    <circle cx="760" cy="400" r=".6"/>
    <circle cx="760" cy="440" r=".6"/>
    <circle cx="760" cy="480" r=".6"/>
    <circle cx="760" cy="520" r=".6"/>
    <circle cx="760" cy="560" r=".6"/>
    <circle cx="760" cy="600" r=".6"/>
    <circle cx="800" cy="0" r=".6"/>
    <circle cx="800" cy="40" r=".6"/>
    <circle cx="800" cy="80" r=".6"/>
    <circle cx="800" cy="120" r=".6"/>
    <circle cx="800" cy="160" r=".6"/>
    <circle cx="800" cy="200" r=".6"/>
    <circle cx="800" cy="240" r=".6"/>
    <circle cx="800" cy="280" r=".6"/>
    <circle cx="800" cy="320" r=".6"/>
    <circle cx="800" cy="360" r=".6"/>
    <circle cx="800" cy="400" r=".6"/>
    <circle cx="800" cy="440" r=".6"/>
    <circle cx="800" cy="480" r=".6"/>
    <circle cx="800" cy="520" r=".6"/>
    <circle cx="800" cy="560" r=".6"/>
    <circle cx="800" cy="600" r=".6"/>
  </g>

  <!-- Subtle ambient glows -->
  <circle cx="260" cy="330" r="180" fill="#38bdf8" opacity=".04"/>
  <circle cx="570" cy="155" r="120" fill="#818cf8" opacity=".035"/>
  <circle cx="560" cy="490" r="90" fill="#fbbf24" opacity=".03"/>

  <!-- ═══════════════ FOUR-BAR LINKAGE ═══════════════ -->

  <!-- Ground (fixed frame) with hash marks -->
  <line x1="170" y1="330" x2="350" y2="330" stroke="#475569" stroke-width="2.5" opacity=".4"/>
  <line x1="165" y1="332" x2="159" y2="340" stroke="#475569" stroke-width="1" opacity=".25"/>
  <line x1="177" y1="332" x2="171" y2="340" stroke="#475569" stroke-width="1" opacity=".25"/>
  <line x1="189" y1="332" x2="183" y2="340" stroke="#475569" stroke-width="1" opacity=".25"/>
  <line x1="201" y1="332" x2="195" y2="340" stroke="#475569" stroke-width="1" opacity=".25"/>
  <line x1="213" y1="332" x2="207" y2="340" stroke="#475569" stroke-width="1" opacity=".25"/>
  <line x1="225" y1="332" x2="219" y2="340" stroke="#475569" stroke-width="1" opacity=".25"/>
  <line x1="237" y1="332" x2="231" y2="340" stroke="#475569" stroke-width="1" opacity=".25"/>
  <line x1="249" y1="332" x2="243" y2="340" stroke="#475569" stroke-width="1" opacity=".25"/>
  <line x1="261" y1="332" x2="255" y2="340" stroke="#475569" stroke-width="1" opacity=".25"/>
  <line x1="273" y1="332" x2="267" y2="340" stroke="#475569" stroke-width="1" opacity=".25"/>
  <line x1="285" y1="332" x2="279" y2="340" stroke="#475569" stroke-width="1" opacity=".25"/>
  <line x1="297" y1="332" x2="291" y2="340" stroke="#475569" stroke-width="1" opacity=".25"/>
  <line x1="309" y1="332" x2="303" y2="340" stroke="#475569" stroke-width="1" opacity=".25"/>
  <line x1="321" y1="332" x2="315" y2="340" stroke="#475569" stroke-width="1" opacity=".25"/>
  <line x1="333" y1="332" x2="327" y2="340" stroke="#475569" stroke-width="1" opacity=".25"/>
  <line x1="345" y1="332" x2="339" y2="340" stroke="#475569" stroke-width="1" opacity=".25"/>
  <line x1="357" y1="332" x2="351" y2="340" stroke="#475569" stroke-width="1" opacity=".25"/>

  <!-- Coupler curve (path traced by coupler midpoint) -->
  <path d="M283.2 275.8 L280.2 279.2 L276.8 282.8 L273.1 286.6 L269.1 290.5 L264.9 294.5 L260.6 298.6 L256.3 302.8 L252.0 306.8 L247.7 310.8 L243.5 314.6 L239.3 318.2 L235.2 321.6 L231.1 324.7 L227.1 327.5 L223.2 330.1 L219.4 332.3 L215.6 334.2 L211.9 335.8 L208.3 337.1 L204.8 338.1 L201.5 338.7 L198.3 339.0 L195.2 339.1 L192.3 338.8 L189.5 338.2 L187.0 337.3 L184.6 336.2 L182.5 334.7 L180.6 333.0 L179.0 331.0 L177.6 328.7 L176.5 326.1 L175.8 323.2 L175.3 320.0 L175.1 316.4 L175.4 312.5 L176.0 308.3 L177.0 303.9 L178.4 299.2 L180.2 294.4 L182.4 289.6 L185.1 284.8 L188.1 280.1 L191.6 275.5 L195.4 271.1 L199.5 266.9 L203.9 263.1 L208.6 259.5 L213.5 256.4 L218.6 253.5 L223.9 251.1 L229.2 249.1 L234.6 247.5 L240.0 246.3 L245.4 245.5 L250.7 245.1 L255.9 245.1 L260.8 245.4 L265.5 246.2 L270.0 247.2 L274.1 248.6 L277.8 250.2 L281.0 252.1 L283.8 254.1 L286.0 256.4 L287.6 258.8 L288.5 261.3 L288.8 263.9 L288.4 266.7 L287.3 269.6 L285.5 272.6 Z" fill="none" stroke="#38bdf8" stroke-width=".8" opacity=".2" stroke-dasharray="3 3"/>

  <!-- Crank (O2 → A) -->
  <line x1="170" y1="330" x2="235.0" y2="330.0" stroke="url(#sky)" stroke-width="3" opacity=".85" stroke-linecap="round">
    <animate attributeName="x2" values="235.0;234.8;234.0;232.8;231.1;228.9;226.3;223.2;219.8;216.0;211.8;207.3;202.5;197.5;192.2;186.8;181.3;175.7;170.0;164.3;158.7;153.2;147.8;142.5;137.5;132.7;128.2;124.0;120.2;116.8;113.7;111.1;108.9;107.2;106.0;105.2;105.0;105.2;106.0;107.2;108.9;111.1;113.7;116.8;120.2;124.0;128.2;132.7;137.5;142.5;147.8;153.2;158.7;164.3;170.0;175.7;181.3;186.8;192.2;197.5;202.5;207.3;211.8;216.0;219.8;223.2;226.3;228.9;231.1;232.8;234.0;234.8;235.0" dur="8s" repeatCount="indefinite"/>
    <animate attributeName="y2" values="330.0;335.7;341.3;346.8;352.2;357.5;362.5;367.3;371.8;376.0;379.8;383.2;386.3;388.9;391.1;392.8;394.0;394.8;395.0;394.8;394.0;392.8;391.1;388.9;386.3;383.2;379.8;376.0;371.8;367.3;362.5;357.5;352.2;346.8;341.3;335.7;330.0;324.3;318.7;313.2;307.8;302.5;297.5;292.7;288.2;284.0;280.2;276.8;273.7;271.1;268.9;267.2;266.0;265.2;265.0;265.2;266.0;267.2;268.9;271.1;273.7;276.8;280.2;284.0;288.2;292.7;297.5;302.5;307.8;313.2;318.7;324.3;330.0" dur="8s" repeatCount="indefinite"/>
  </line>

  <!-- Coupler (A → B) -->
  <line x1="235.0" y1="330.0" x2="331.3" y2="221.6" stroke="url(#sky)" stroke-width="2.5" opacity=".75" stroke-linecap="round">
    <animate attributeName="x1" values="235.0;234.8;234.0;232.8;231.1;228.9;226.3;223.2;219.8;216.0;211.8;207.3;202.5;197.5;192.2;186.8;181.3;175.7;170.0;164.3;158.7;153.2;147.8;142.5;137.5;132.7;128.2;124.0;120.2;116.8;113.7;111.1;108.9;107.2;106.0;105.2;105.0;105.2;106.0;107.2;108.9;111.1;113.7;116.8;120.2;124.0;128.2;132.7;137.5;142.5;147.8;153.2;158.7;164.3;170.0;175.7;181.3;186.8;192.2;197.5;202.5;207.3;211.8;216.0;219.8;223.2;226.3;228.9;231.1;232.8;234.0;234.8;235.0" dur="8s" repeatCount="indefinite"/>
    <animate attributeName="y1" values="330.0;335.7;341.3;346.8;352.2;357.5;362.5;367.3;371.8;376.0;379.8;383.2;386.3;388.9;391.1;392.8;394.0;394.8;395.0;394.8;394.0;392.8;391.1;388.9;386.3;383.2;379.8;376.0;371.8;367.3;362.5;357.5;352.2;346.8;341.3;335.7;330.0;324.3;318.7;313.2;307.8;302.5;297.5;292.7;288.2;284.0;280.2;276.8;273.7;271.1;268.9;267.2;266.0;265.2;265.0;265.2;266.0;267.2;268.9;271.1;273.7;276.8;280.2;284.0;288.2;292.7;297.5;302.5;307.8;313.2;318.7;324.3;330.0" dur="8s" repeatCount="indefinite"/>
    <animate attributeName="x2" values="331.3;325.7;319.6;313.4;307.1;300.9;294.9;289.4;284.2;279.5;275.2;271.3;267.8;264.8;262.0;259.6;257.4;255.5;253.8;252.3;251.0;249.8;248.7;247.8;247.0;246.3;245.8;245.3;244.9;244.5;244.3;244.2;244.2;244.3;244.6;245.0;245.7;246.7;247.9;249.5;251.5;253.8;256.5;259.5;263.0;266.7;270.8;275.1;279.7;284.5;289.5;294.6;299.7;304.9;310.1;315.2;320.1;324.9;329.4;333.6;337.5;340.9;343.8;346.1;347.8;348.7;348.8;348.1;346.5;344.0;340.6;336.3;331.3" dur="8s" repeatCount="indefinite"/>
    <animate attributeName="y2" values="221.6;222.7;224.3;226.3;228.7;231.6;234.8;238.2;241.9;245.6;249.4;253.1;256.9;260.5;264.0;267.4;270.6;273.7;276.7;279.5;282.1;284.7;287.0;289.2;291.3;293.2;294.9;296.4;297.7;298.7;299.5;299.9;300.0;299.6;298.6;297.1;295.0;292.3;289.0;285.3;281.1;276.7;272.1;267.4;262.7;258.1;253.7;249.4;245.4;241.6;238.2;235.0;232.2;229.7;227.5;225.7;224.1;222.9;221.9;221.2;220.7;220.4;220.2;220.1;220.0;220.0;220.0;220.0;220.1;220.2;220.4;220.9;221.6" dur="8s" repeatCount="indefinite"/>
  </line>

  <!-- Rocker (O4 → B) -->
  <line x1="350" y1="330" x2="331.3" y2="221.6" stroke="url(#sky)" stroke-width="3" opacity=".85" stroke-linecap="round">
    <animate attributeName="x2" values="331.3;325.7;319.6;313.4;307.1;300.9;294.9;289.4;284.2;279.5;275.2;271.3;267.8;264.8;262.0;259.6;257.4;255.5;253.8;252.3;251.0;249.8;248.7;247.8;247.0;246.3;245.8;245.3;244.9;244.5;244.3;244.2;244.2;244.3;244.6;245.0;245.7;246.7;247.9;249.5;251.5;253.8;256.5;259.5;263.0;266.7;270.8;275.1;279.7;284.5;289.5;294.6;299.7;304.9;310.1;315.2;320.1;324.9;329.4;333.6;337.5;340.9;343.8;346.1;347.8;348.7;348.8;348.1;346.5;344.0;340.6;336.3;331.3" dur="8s" repeatCount="indefinite"/>
    <animate attributeName="y2" values="221.6;222.7;224.3;226.3;228.7;231.6;234.8;238.2;241.9;245.6;249.4;253.1;256.9;260.5;264.0;267.4;270.6;273.7;276.7;279.5;282.1;284.7;287.0;289.2;291.3;293.2;294.9;296.4;297.7;298.7;299.5;299.9;300.0;299.6;298.6;297.1;295.0;292.3;289.0;285.3;281.1;276.7;272.1;267.4;262.7;258.1;253.7;249.4;245.4;241.6;238.2;235.0;232.2;229.7;227.5;225.7;224.1;222.9;221.9;221.2;220.7;220.4;220.2;220.1;220.0;220.0;220.0;220.0;220.1;220.2;220.4;220.9;221.6" dur="8s" repeatCount="indefinite"/>
  </line>

  <!-- Pin joint at A (crank-coupler) -->
  <circle r="4.5" fill="none" stroke="#38bdf8" stroke-width="1.5" opacity=".7">
    <animate attributeName="cx" values="235.0;234.8;234.0;232.8;231.1;228.9;226.3;223.2;219.8;216.0;211.8;207.3;202.5;197.5;192.2;186.8;181.3;175.7;170.0;164.3;158.7;153.2;147.8;142.5;137.5;132.7;128.2;124.0;120.2;116.8;113.7;111.1;108.9;107.2;106.0;105.2;105.0;105.2;106.0;107.2;108.9;111.1;113.7;116.8;120.2;124.0;128.2;132.7;137.5;142.5;147.8;153.2;158.7;164.3;170.0;175.7;181.3;186.8;192.2;197.5;202.5;207.3;211.8;216.0;219.8;223.2;226.3;228.9;231.1;232.8;234.0;234.8;235.0" dur="8s" repeatCount="indefinite"/>
    <animate attributeName="cy" values="330.0;335.7;341.3;346.8;352.2;357.5;362.5;367.3;371.8;376.0;379.8;383.2;386.3;388.9;391.1;392.8;394.0;394.8;395.0;394.8;394.0;392.8;391.1;388.9;386.3;383.2;379.8;376.0;371.8;367.3;362.5;357.5;352.2;346.8;341.3;335.7;330.0;324.3;318.7;313.2;307.8;302.5;297.5;292.7;288.2;284.0;280.2;276.8;273.7;271.1;268.9;267.2;266.0;265.2;265.0;265.2;266.0;267.2;268.9;271.1;273.7;276.8;280.2;284.0;288.2;292.7;297.5;302.5;307.8;313.2;318.7;324.3;330.0" dur="8s" repeatCount="indefinite"/>
  </circle>
  <circle r="2" fill="#38bdf8" opacity=".9">
    <animate attributeName="cx" values="235.0;234.8;234.0;232.8;231.1;228.9;226.3;223.2;219.8;216.0;211.8;207.3;202.5;197.5;192.2;186.8;181.3;175.7;170.0;164.3;158.7;153.2;147.8;142.5;137.5;132.7;128.2;124.0;120.2;116.8;113.7;111.1;108.9;107.2;106.0;105.2;105.0;105.2;106.0;107.2;108.9;111.1;113.7;116.8;120.2;124.0;128.2;132.7;137.5;142.5;147.8;153.2;158.7;164.3;170.0;175.7;181.3;186.8;192.2;197.5;202.5;207.3;211.8;216.0;219.8;223.2;226.3;228.9;231.1;232.8;234.0;234.8;235.0" dur="8s" repeatCount="indefinite"/>
    <animate attributeName="cy" values="330.0;335.7;341.3;346.8;352.2;357.5;362.5;367.3;371.8;376.0;379.8;383.2;386.3;388.9;391.1;392.8;394.0;394.8;395.0;394.8;394.0;392.8;391.1;388.9;386.3;383.2;379.8;376.0;371.8;367.3;362.5;357.5;352.2;346.8;341.3;335.7;330.0;324.3;318.7;313.2;307.8;302.5;297.5;292.7;288.2;284.0;280.2;276.8;273.7;271.1;268.9;267.2;266.0;265.2;265.0;265.2;266.0;267.2;268.9;271.1;273.7;276.8;280.2;284.0;288.2;292.7;297.5;302.5;307.8;313.2;318.7;324.3;330.0" dur="8s" repeatCount="indefinite"/>
  </circle>

  <!-- Pin joint at B (coupler-rocker) -->
  <circle r="4.5" fill="none" stroke="#38bdf8" stroke-width="1.5" opacity=".7">
    <animate attributeName="cx" values="331.3;325.7;319.6;313.4;307.1;300.9;294.9;289.4;284.2;279.5;275.2;271.3;267.8;264.8;262.0;259.6;257.4;255.5;253.8;252.3;251.0;249.8;248.7;247.8;247.0;246.3;245.8;245.3;244.9;244.5;244.3;244.2;244.2;244.3;244.6;245.0;245.7;246.7;247.9;249.5;251.5;253.8;256.5;259.5;263.0;266.7;270.8;275.1;279.7;284.5;289.5;294.6;299.7;304.9;310.1;315.2;320.1;324.9;329.4;333.6;337.5;340.9;343.8;346.1;347.8;348.7;348.8;348.1;346.5;344.0;340.6;336.3;331.3" dur="8s" repeatCount="indefinite"/>
    <animate attributeName="cy" values="221.6;222.7;224.3;226.3;228.7;231.6;234.8;238.2;241.9;245.6;249.4;253.1;256.9;260.5;264.0;267.4;270.6;273.7;276.7;279.5;282.1;284.7;287.0;289.2;291.3;293.2;294.9;296.4;297.7;298.7;299.5;299.9;300.0;299.6;298.6;297.1;295.0;292.3;289.0;285.3;281.1;276.7;272.1;267.4;262.7;258.1;253.7;249.4;245.4;241.6;238.2;235.0;232.2;229.7;227.5;225.7;224.1;222.9;221.9;221.2;220.7;220.4;220.2;220.1;220.0;220.0;220.0;220.0;220.1;220.2;220.4;220.9;221.6" dur="8s" repeatCount="indefinite"/>
  </circle>
  <circle r="2" fill="#38bdf8" opacity=".9">
    <animate attributeName="cx" values="331.3;325.7;319.6;313.4;307.1;300.9;294.9;289.4;284.2;279.5;275.2;271.3;267.8;264.8;262.0;259.6;257.4;255.5;253.8;252.3;251.0;249.8;248.7;247.8;247.0;246.3;245.8;245.3;244.9;244.5;244.3;244.2;244.2;244.3;244.6;245.0;245.7;246.7;247.9;249.5;251.5;253.8;256.5;259.5;263.0;266.7;270.8;275.1;279.7;284.5;289.5;294.6;299.7;304.9;310.1;315.2;320.1;324.9;329.4;333.6;337.5;340.9;343.8;346.1;347.8;348.7;348.8;348.1;346.5;344.0;340.6;336.3;331.3" dur="8s" repeatCount="indefinite"/>
    <animate attributeName="cy" values="221.6;222.7;224.3;226.3;228.7;231.6;234.8;238.2;241.9;245.6;249.4;253.1;256.9;260.5;264.0;267.4;270.6;273.7;276.7;279.5;282.1;284.7;287.0;289.2;291.3;293.2;294.9;296.4;297.7;298.7;299.5;299.9;300.0;299.6;298.6;297.1;295.0;292.3;289.0;285.3;281.1;276.7;272.1;267.4;262.7;258.1;253.7;249.4;245.4;241.6;238.2;235.0;232.2;229.7;227.5;225.7;224.1;222.9;221.9;221.2;220.7;220.4;220.2;220.1;220.0;220.0;220.0;220.0;220.1;220.2;220.4;220.9;221.6" dur="8s" repeatCount="indefinite"/>
  </circle>

  <!-- Coupler midpoint P (traces the coupler curve) -->
  <circle r="3" fill="#38bdf8" opacity=".6" filter="url(#glow)">
    <animate attributeName="cx" values="283.2;280.2;276.8;273.1;269.1;264.9;260.6;256.3;252.0;247.7;243.5;239.3;235.2;231.1;227.1;223.2;219.4;215.6;211.9;208.3;204.8;201.5;198.3;195.2;192.3;189.5;187.0;184.6;182.5;180.6;179.0;177.6;176.5;175.8;175.3;175.1;175.4;176.0;177.0;178.4;180.2;182.4;185.1;188.1;191.6;195.4;199.5;203.9;208.6;213.5;218.6;223.9;229.2;234.6;240.0;245.4;250.7;255.9;260.8;265.5;270.0;274.1;277.8;281.0;283.8;286.0;287.6;288.5;288.8;288.4;287.3;285.5;283.2" dur="8s" repeatCount="indefinite"/>
    <animate attributeName="cy" values="275.8;279.2;282.8;286.6;290.5;294.5;298.6;302.8;306.8;310.8;314.6;318.2;321.6;324.7;327.5;330.1;332.3;334.2;335.8;337.1;338.1;338.7;339.0;339.1;338.8;338.2;337.3;336.2;334.7;333.0;331.0;328.7;326.1;323.2;320.0;316.4;312.5;308.3;303.9;299.2;294.4;289.6;284.8;280.1;275.5;271.1;266.9;263.1;259.5;256.4;253.5;251.1;249.1;247.5;246.3;245.5;245.1;245.1;245.4;246.2;247.2;248.6;250.2;252.1;254.1;256.4;258.8;261.3;263.9;266.7;269.6;272.6;275.8" dur="8s" repeatCount="indefinite"/>
  </circle>

  <!-- Ground pivots O2 and O4 -->
  <circle cx="170" cy="330" r="5.5" fill="none" stroke="#38bdf8" stroke-width="1.8" opacity=".7"/>
  <circle cx="170" cy="330" r="2.2" fill="#38bdf8" opacity=".95" filter="url(#glow)"/>
  <circle cx="350" cy="330" r="5.5" fill="none" stroke="#38bdf8" stroke-width="1.8" opacity=".7"/>
  <circle cx="350" cy="330" r="2.2" fill="#38bdf8" opacity=".95" filter="url(#glow)"/>

  <!-- ═══════════════ MESHING GEARS ═══════════════ -->

  <!-- Gear A (larger, CW) -->
  <g transform="translate(570,155)" style="animation: cw 16s linear infinite; transform-origin: center">
    <path d="M55.0 0.0 L62.6 7.4 L61.8 12.3 L60.6 17.1 L50.8 21.0 L50.8 21.0 L55.0 30.8 L52.4 35.0 L49.5 39.0 L38.9 38.9 L38.9 38.9 L39.0 49.5 L35.0 52.4 L30.8 55.0 L21.0 50.8 L21.0 50.8 L17.1 60.6 L12.3 61.8 L7.4 62.6 L0.0 55.0 L0.0 55.0 L-7.4 62.6 L-12.3 61.8 L-17.1 60.6 L-21.0 50.8 L-21.0 50.8 L-30.8 55.0 L-35.0 52.4 L-39.0 49.5 L-38.9 38.9 L-38.9 38.9 L-49.5 39.0 L-52.4 35.0 L-55.0 30.8 L-50.8 21.0 L-50.8 21.0 L-60.6 17.1 L-61.8 12.3 L-62.6 7.4 L-55.0 0.0 L-55.0 0.0 L-62.6 -7.4 L-61.8 -12.3 L-60.6 -17.1 L-50.8 -21.0 L-50.8 -21.0 L-55.0 -30.8 L-52.4 -35.0 L-49.5 -39.0 L-38.9 -38.9 L-38.9 -38.9 L-39.0 -49.5 L-35.0 -52.4 L-30.8 -55.0 L-21.0 -50.8 L-21.0 -50.8 L-17.1 -60.6 L-12.3 -61.8 L-7.4 -62.6 L-0.0 -55.0 L-0.0 -55.0 L7.4 -62.6 L12.3 -61.8 L17.1 -60.6 L21.0 -50.8 L21.0 -50.8 L30.8 -55.0 L35.0 -52.4 L39.0 -49.5 L38.9 -38.9 L38.9 -38.9 L49.5 -39.0 L52.4 -35.0 L55.0 -30.8 L50.8 -21.0 L50.8 -21.0 L60.6 -17.1 L61.8 -12.3 L62.6 -7.4 L55.0 -0.0 Z" fill="none" stroke="url(#indigo)" stroke-width="1.8" opacity=".7"/>
    <circle r="16" fill="none" stroke="url(#indigo)" stroke-width="1.2" opacity=".4"/>
    <!-- Spokes -->
    <line x1="0" y1="-16" x2="0" y2="16" stroke="url(#indigo)" stroke-width=".8" opacity=".3"/>
    <line x1="-16" y1="0" x2="16" y2="0" stroke="url(#indigo)" stroke-width=".8" opacity=".3"/>
  </g>
  <circle cx="570" cy="155" r="3" fill="#818cf8" opacity=".85" filter="url(#glow)"/>

  <!-- Gear B (smaller, CCW, meshed) -->
  <g transform="translate(663,155) rotate(16.4)" style="animation: ccw 11.05s linear infinite; transform-origin: center">
    <path d="M38.0 0.0 L45.3 7.8 L44.1 13.0 L42.4 17.9 L32.0 20.5 L32.0 20.5 L33.9 31.1 L30.1 34.8 L26.0 38.0 L15.8 34.6 L15.8 34.6 L11.7 44.5 L6.5 45.5 L1.3 46.0 L-5.4 37.6 L-5.4 37.6 L-14.2 43.7 L-19.1 41.8 L-23.8 39.4 L-24.9 28.7 L-24.9 28.7 L-35.6 29.1 L-38.7 24.9 L-41.3 20.3 L-36.5 10.7 L-36.5 10.7 L-45.7 5.2 L-46.0 0.0 L-45.7 -5.2 L-36.5 -10.7 L-36.5 -10.7 L-41.3 -20.3 L-38.7 -24.9 L-35.6 -29.1 L-24.9 -28.7 L-24.9 -28.7 L-23.8 -39.4 L-19.1 -41.8 L-14.2 -43.7 L-5.4 -37.6 L-5.4 -37.6 L1.3 -46.0 L6.5 -45.5 L11.7 -44.5 L15.8 -34.6 L15.8 -34.6 L26.0 -38.0 L30.1 -34.8 L33.9 -31.1 L32.0 -20.5 L32.0 -20.5 L42.4 -17.9 L44.1 -13.0 L45.3 -7.8 L38.0 -0.0 Z" fill="none" stroke="url(#indigo)" stroke-width="1.5" opacity=".65"/>
    <circle r="11" fill="none" stroke="url(#indigo)" stroke-width="1" opacity=".35"/>
    <line x1="0" y1="-11" x2="0" y2="11" stroke="url(#indigo)" stroke-width=".7" opacity=".25"/>
  </g>
  <circle cx="663" cy="155" r="2.5" fill="#818cf8" opacity=".8" filter="url(#glow)"/>

  <!-- Pitch circles (dashed, show meshing geometry) -->
  <circle cx="570" cy="155" r="55" fill="none" stroke="#a5b4fc" stroke-width=".5" opacity=".12" stroke-dasharray="4 4"/>
  <circle cx="663" cy="155" r="38" fill="none" stroke="#a5b4fc" stroke-width=".5" opacity=".12" stroke-dasharray="4 4"/>

  <!-- Gear shafts to frame -->
  <line x1="570" y1="223" x2="570" y2="236" stroke="#475569" stroke-width="1.5" opacity=".25"/>
  <line x1="663" y1="206" x2="663" y2="219" stroke="#475569" stroke-width="1.5" opacity=".25"/>

  <!-- ═══════════════ SLIDER-CRANK ═══════════════ -->

  <!-- Rail / guide -->
  <line x1="550" y1="490" x2="702" y2="490" stroke="#475569" stroke-width="2" opacity=".35"/>
  <line x1="550" y1="502" x2="702" y2="502" stroke="#475569" stroke-width="1" opacity=".2"/>
  <line x1="550" y1="478" x2="702" y2="478" stroke="#475569" stroke-width="1" opacity=".2"/>
  <line x1="550" y1="502" x2="546" y2="508" stroke="#475569" stroke-width=".8" opacity=".15"/>
  <line x1="560" y1="502" x2="556" y2="508" stroke="#475569" stroke-width=".8" opacity=".15"/>
  <line x1="570" y1="502" x2="566" y2="508" stroke="#475569" stroke-width=".8" opacity=".15"/>
  <line x1="580" y1="502" x2="576" y2="508" stroke="#475569" stroke-width=".8" opacity=".15"/>
  <line x1="590" y1="502" x2="586" y2="508" stroke="#475569" stroke-width=".8" opacity=".15"/>
  <line x1="600" y1="502" x2="596" y2="508" stroke="#475569" stroke-width=".8" opacity=".15"/>
  <line x1="610" y1="502" x2="606" y2="508" stroke="#475569" stroke-width=".8" opacity=".15"/>
  <line x1="620" y1="502" x2="616" y2="508" stroke="#475569" stroke-width=".8" opacity=".15"/>
  <line x1="630" y1="502" x2="626" y2="508" stroke="#475569" stroke-width=".8" opacity=".15"/>
  <line x1="640" y1="502" x2="636" y2="508" stroke="#475569" stroke-width=".8" opacity=".15"/>
  <line x1="650" y1="502" x2="646" y2="508" stroke="#475569" stroke-width=".8" opacity=".15"/>
  <line x1="660" y1="502" x2="656" y2="508" stroke="#475569" stroke-width=".8" opacity=".15"/>
  <line x1="670" y1="502" x2="666" y2="508" stroke="#475569" stroke-width=".8" opacity=".15"/>
  <line x1="680" y1="502" x2="676" y2="508" stroke="#475569" stroke-width=".8" opacity=".15"/>
  <line x1="690" y1="502" x2="686" y2="508" stroke="#475569" stroke-width=".8" opacity=".15"/>
  <line x1="700" y1="502" x2="696" y2="508" stroke="#475569" stroke-width=".8" opacity=".15"/>

  <!-- Crank (SC_O → pin) -->
  <line x1="560" y1="490" x2="592.0" y2="490.0" stroke="url(#amber)" stroke-width="2.5" opacity=".8" stroke-linecap="round">
    <animate attributeName="x2" values="592.0;591.9;591.5;590.9;590.1;589.0;587.7;586.2;584.5;582.6;580.6;578.4;576.0;573.5;570.9;568.3;565.6;562.8;560.0;557.2;554.4;551.7;549.1;546.5;544.0;541.6;539.4;537.4;535.5;533.8;532.3;531.0;529.9;529.1;528.5;528.1;528.0;528.1;528.5;529.1;529.9;531.0;532.3;533.8;535.5;537.4;539.4;541.6;544.0;546.5;549.1;551.7;554.4;557.2;560.0;562.8;565.6;568.3;570.9;573.5;576.0;578.4;580.6;582.6;584.5;586.2;587.7;589.0;590.1;590.9;591.5;591.9;592.0" dur="6s" repeatCount="indefinite"/>
    <animate attributeName="y2" values="490.0;492.8;495.6;498.3;500.9;503.5;506.0;508.4;510.6;512.6;514.5;516.2;517.7;519.0;520.1;520.9;521.5;521.9;522.0;521.9;521.5;520.9;520.1;519.0;517.7;516.2;514.5;512.6;510.6;508.4;506.0;503.5;500.9;498.3;495.6;492.8;490.0;487.2;484.4;481.7;479.1;476.5;474.0;471.6;469.4;467.4;465.5;463.8;462.3;461.0;459.9;459.1;458.5;458.1;458.0;458.1;458.5;459.1;459.9;461.0;462.3;463.8;465.5;467.4;469.4;471.6;474.0;476.5;479.1;481.7;484.4;487.2;490.0" dur="6s" repeatCount="indefinite"/>
  </line>

  <!-- Connecting rod (pin → piston) -->
  <line y1="490" y2="490" stroke="url(#amber)" stroke-width="2" opacity=".7" stroke-linecap="round">
    <animate attributeName="x1" values="592.0;591.9;591.5;590.9;590.1;589.0;587.7;586.2;584.5;582.6;580.6;578.4;576.0;573.5;570.9;568.3;565.6;562.8;560.0;557.2;554.4;551.7;549.1;546.5;544.0;541.6;539.4;537.4;535.5;533.8;532.3;531.0;529.9;529.1;528.5;528.1;528.0;528.1;528.5;529.1;529.9;531.0;532.3;533.8;535.5;537.4;539.4;541.6;544.0;546.5;549.1;551.7;554.4;557.2;560.0;562.8;565.6;568.3;570.9;573.5;576.0;578.4;580.6;582.6;584.5;586.2;587.7;589.0;590.1;590.9;591.5;591.9;592.0" dur="6s" repeatCount="indefinite"/>
    <animate attributeName="y1" values="490.0;492.8;495.6;498.3;500.9;503.5;506.0;508.4;510.6;512.6;514.5;516.2;517.7;519.0;520.1;520.9;521.5;521.9;522.0;521.9;521.5;520.9;520.1;519.0;517.7;516.2;514.5;512.6;510.6;508.4;506.0;503.5;500.9;498.3;495.6;492.8;490.0;487.2;484.4;481.7;479.1;476.5;474.0;471.6;469.4;467.4;465.5;463.8;462.3;461.0;459.9;459.1;458.5;458.1;458.0;458.1;458.5;459.1;459.9;461.0;462.3;463.8;465.5;467.4;469.4;471.6;474.0;476.5;479.1;481.7;484.4;487.2;490.0" dur="6s" repeatCount="indefinite"/>
    <animate attributeName="x2" values="677.0;676.8;676.3;675.5;674.4;672.9;671.2;669.2;667.0;664.6;662.0;659.2;656.4;653.4;650.4;647.5;644.5;641.6;638.7;636.0;633.4;630.9;628.6;626.4;624.4;622.5;620.8;619.3;618.0;616.8;615.8;614.9;614.2;613.7;613.3;613.1;613.0;613.1;613.3;613.7;614.2;614.9;615.8;616.8;618.0;619.3;620.8;622.5;624.4;626.4;628.6;630.9;633.4;636.0;638.7;641.6;644.5;647.5;650.4;653.4;656.4;659.2;662.0;664.6;667.0;669.2;671.2;672.9;674.4;675.5;676.3;676.8;677.0" dur="6s" repeatCount="indefinite"/>
  </line>

  <!-- Crank pin joint -->
  <circle r="3.5" fill="none" stroke="#fbbf24" stroke-width="1.3" opacity=".65">
    <animate attributeName="cx" values="592.0;591.9;591.5;590.9;590.1;589.0;587.7;586.2;584.5;582.6;580.6;578.4;576.0;573.5;570.9;568.3;565.6;562.8;560.0;557.2;554.4;551.7;549.1;546.5;544.0;541.6;539.4;537.4;535.5;533.8;532.3;531.0;529.9;529.1;528.5;528.1;528.0;528.1;528.5;529.1;529.9;531.0;532.3;533.8;535.5;537.4;539.4;541.6;544.0;546.5;549.1;551.7;554.4;557.2;560.0;562.8;565.6;568.3;570.9;573.5;576.0;578.4;580.6;582.6;584.5;586.2;587.7;589.0;590.1;590.9;591.5;591.9;592.0" dur="6s" repeatCount="indefinite"/>
    <animate attributeName="cy" values="490.0;492.8;495.6;498.3;500.9;503.5;506.0;508.4;510.6;512.6;514.5;516.2;517.7;519.0;520.1;520.9;521.5;521.9;522.0;521.9;521.5;520.9;520.1;519.0;517.7;516.2;514.5;512.6;510.6;508.4;506.0;503.5;500.9;498.3;495.6;492.8;490.0;487.2;484.4;481.7;479.1;476.5;474.0;471.6;469.4;467.4;465.5;463.8;462.3;461.0;459.9;459.1;458.5;458.1;458.0;458.1;458.5;459.1;459.9;461.0;462.3;463.8;465.5;467.4;469.4;471.6;474.0;476.5;479.1;481.7;484.4;487.2;490.0" dur="6s" repeatCount="indefinite"/>
  </circle>
  <circle r="1.5" fill="#fbbf24" opacity=".85">
    <animate attributeName="cx" values="592.0;591.9;591.5;590.9;590.1;589.0;587.7;586.2;584.5;582.6;580.6;578.4;576.0;573.5;570.9;568.3;565.6;562.8;560.0;557.2;554.4;551.7;549.1;546.5;544.0;541.6;539.4;537.4;535.5;533.8;532.3;531.0;529.9;529.1;528.5;528.1;528.0;528.1;528.5;529.1;529.9;531.0;532.3;533.8;535.5;537.4;539.4;541.6;544.0;546.5;549.1;551.7;554.4;557.2;560.0;562.8;565.6;568.3;570.9;573.5;576.0;578.4;580.6;582.6;584.5;586.2;587.7;589.0;590.1;590.9;591.5;591.9;592.0" dur="6s" repeatCount="indefinite"/>
    <animate attributeName="cy" values="490.0;492.8;495.6;498.3;500.9;503.5;506.0;508.4;510.6;512.6;514.5;516.2;517.7;519.0;520.1;520.9;521.5;521.9;522.0;521.9;521.5;520.9;520.1;519.0;517.7;516.2;514.5;512.6;510.6;508.4;506.0;503.5;500.9;498.3;495.6;492.8;490.0;487.2;484.4;481.7;479.1;476.5;474.0;471.6;469.4;467.4;465.5;463.8;462.3;461.0;459.9;459.1;458.5;458.1;458.0;458.1;458.5;459.1;459.9;461.0;462.3;463.8;465.5;467.4;469.4;471.6;474.0;476.5;479.1;481.7;484.4;487.2;490.0" dur="6s" repeatCount="indefinite"/>
  </circle>

  <!-- Piston block -->
  <rect y="480" width="20" height="20" rx="2.5" fill="none" stroke="url(#amber)" stroke-width="1.8" opacity=".7">
    <animate attributeName="x" values="667.0;666.8;666.3;665.5;664.4;662.9;661.2;659.2;657.0;654.6;652.0;649.2;646.4;643.4;640.4;637.5;634.5;631.6;628.7;626.0;623.4;620.9;618.6;616.4;614.4;612.5;610.8;609.3;608.0;606.8;605.8;604.9;604.2;603.7;603.3;603.1;603.0;603.1;603.3;603.7;604.2;604.9;605.8;606.8;608.0;609.3;610.8;612.5;614.4;616.4;618.6;620.9;623.4;626.0;628.7;631.6;634.5;637.5;640.4;643.4;646.4;649.2;652.0;654.6;657.0;659.2;661.2;662.9;664.4;665.5;666.3;666.8;667.0" dur="6s" repeatCount="indefinite"/>
  </rect>
  <circle cy="490" r="2" fill="#fbbf24" opacity=".8" filter="url(#glow)">
    <animate attributeName="cx" values="677.0;676.8;676.3;675.5;674.4;672.9;671.2;669.2;667.0;664.6;662.0;659.2;656.4;653.4;650.4;647.5;644.5;641.6;638.7;636.0;633.4;630.9;628.6;626.4;624.4;622.5;620.8;619.3;618.0;616.8;615.8;614.9;614.2;613.7;613.3;613.1;613.0;613.1;613.3;613.7;614.2;614.9;615.8;616.8;618.0;619.3;620.8;622.5;624.4;626.4;628.6;630.9;633.4;636.0;638.7;641.6;644.5;647.5;650.4;653.4;656.4;659.2;662.0;664.6;667.0;669.2;671.2;672.9;674.4;675.5;676.3;676.8;677.0" dur="6s" repeatCount="indefinite"/>
  </circle>

  <!-- Crank pivot (fixed) -->
  <circle cx="560" cy="490" r="4.5" fill="none" stroke="#fbbf24" stroke-width="1.5" opacity=".6"/>
  <circle cx="560" cy="490" r="2" fill="#fbbf24" opacity=".9" filter="url(#glow)"/>

  <!-- Crank rotation circle (ghost) -->
  <circle cx="560" cy="490" r="32" fill="none" stroke="#fbbf24" stroke-width=".5" opacity=".1" stroke-dasharray="3 5"/>

  <!-- ═══════════════ MOTION-FLOW PATHS ═══════════════ -->

  <!-- Flow: four-bar → gears (suggesting mechanical connection) -->
  <path d="M370 310 Q430 235 505 155" fill="none" stroke="#38bdf8" stroke-width=".6" stroke-dasharray="4 6" opacity=".15" style="animation: dash 3s linear infinite"/>

  <!-- Flow: gears → slider-crank -->  
  <path d="M663 213 Q683 440 560 448" fill="none" stroke="#a5b4fc" stroke-width=".5" stroke-dasharray="3 5" opacity=".12" style="animation: dash 4s linear infinite"/>

  <!-- Flow: four-bar → slider-crank -->
  <path d="M350 345 Q455.0 440.0 513 490" fill="none" stroke="#fbbf24" stroke-width=".5" stroke-dasharray="3 5" opacity=".1" style="animation: dash 3.5s linear infinite"/>

  <!-- ═══════════════ SUBTLE ANNOTATIONS ═══════════════ -->

  <!-- Dimension-like line under ground link -->
  <line x1="170" y1="352" x2="350" y2="352" stroke="#38bdf8" stroke-width=".5" opacity=".15"/>
  <line x1="170" y1="348" x2="170" y2="356" stroke="#38bdf8" stroke-width=".5" opacity=".15"/>
  <line x1="350" y1="348" x2="350" y2="356" stroke="#38bdf8" stroke-width=".5" opacity=".15"/>

  <!-- Angular sweep hint at O2 (crank rotation) -->
  <circle cx="170" cy="330" r="20" fill="none" stroke="#38bdf8" stroke-width=".4" opacity=".12" stroke-dasharray="2 2"/>

  <!-- Corner accents -->
  <path d="M20 20 L20 48 M20 20 L48 20" stroke="#38bdf8" stroke-width=".8" opacity=".15"/>
  <path d="M780 20 L780 48 M780 20 L752 20" stroke="#a5b4fc" stroke-width=".8" opacity=".15"/>
  <path d="M20 580 L20 552 M20 580 L48 580" stroke="#fcd34d" stroke-width=".8" opacity=".12"/>
  <path d="M780 580 L780 552 M780 580 L752 580" stroke="#6ee7b7" stroke-width=".8" opacity=".12"/>

</svg>