<svg xmlns="http://www.w3.org/2000/svg" viewBox="0 0 800 600">
  <defs>
    <linearGradient id="cardbg" x1="0" x2="1" y1="0" y2="1">
      <stop offset="0%" stop-color="#ecfeff" />
      <stop offset="100%" stop-color="#dbeafe" />
    </linearGradient>
  </defs>
  <rect width="800" height="600" fill="#082f49" />
  <rect x="120" y="90" width="560" height="420" rx="28" fill="url(#cardbg)" />
  <rect
    x="175"
    y="155"
    width="140"
    height="24"
    rx="12"
    fill="#0f172a"
    opacity="0.85"
  />
  <rect
    x="175"
    y="208"
    width="250"
    height="18"
    rx="9"
    fill="#475569"
    opacity="0.7"
  />
  <rect
    x="175"
    y="252"
    width="210"
    height="18"
    rx="9"
    fill="#475569"
    opacity="0.5"
  />
  <rect x="175" y="328" width="36" height="36" rx="10" fill="#38bdf8" />
  <path
    d="M186 346 197 356 221 332"
    fill="none"
    stroke="#f8fafc"
    stroke-width="8"
    stroke-linecap="round"
    stroke-linejoin="round"
  />
  <rect
    x="235"
    y="336"
    width="240"
    height="18"
    rx="9"
    fill="#0f172a"
    opacity="0.75"
  />
  <rect x="175" y="388" width="36" height="36" rx="10" fill="#34d399" />
  <path
    d="M186 406 197 416 221 392"
    fill="none"
    stroke="#f8fafc"
    stroke-width="8"
    stroke-linecap="round"
    stroke-linejoin="round"
  />
  <rect
    x="235"
    y="396"
    width="270"
    height="18"
    rx="9"
    fill="#0f172a"
    opacity="0.75"
  />
  <circle cx="560" cy="205" r="62" fill="#bfdbfe" />
  <path
    d="M560 155v100M510 205h100"
    stroke="#0f172a"
    stroke-width="14"
    stroke-linecap="round"
  />
  <text
    x="175"
    y="476"
    fill="#0f172a"
    font-family="Arial, sans-serif"
    font-size="28"
    font-weight="700"
  >
    Applications and participant support
  </text>
</svg>
